<svg width="24" height="25" viewBox="0 0 24 25" fill="none" xmlns="http://www.w3.org/2000/svg">
<path fill-rule="evenodd" clip-rule="evenodd" d="M2 13.71C2 8.07899 2.61401 8.47199 5.91901 5.40999C7.36501 4.24599 9.61901 2 11.558 2C13.497 2 15.795 4.23499 17.258 5.40999C20.563 8.47499 21.176 8.08199 21.176 13.71C21.176 21.997 19.217 21.997 11.59 21.997C3.963 21.997 2 21.997 2 13.71Z" fill="#5474FD"/>
<path d="M14.565 14.885H8.75C8.55109 14.885 8.36032 14.806 8.21967 14.6653C8.07901 14.5247 8 14.3339 8 14.135C8 13.9361 8.07901 13.7453 8.21967 13.6047C8.36032 13.464 8.55109 13.385 8.75 13.385H14.565C14.7639 13.385 14.9547 13.464 15.0953 13.6047C15.236 13.7453 15.315 13.9361 15.315 14.135C15.315 14.3339 15.236 14.5247 15.0953 14.6653C14.9547 14.806 14.7639 14.885 14.565 14.885Z" fill="white"/>
</svg>
